<svg width="28" height="28" viewBox="0 0 28 28" fill="none"
    xmlns="http://www.w3.org/2000/svg">
    <path d="M5.07984 10.5077L11.4292 5.16861L12.9546 3.88678C13.2474 3.64075 13.6176 3.50586 14 3.50586C14.3823 3.50586 14.7524 3.64067 15.0452 3.88657C15.0452 3.88664 15.0453 3.88671 15.0454 3.88678L22.9202 10.5086L22.9204 10.5088C23.1019 10.6613 23.2478 10.8516 23.3479 11.0664C23.448 11.2812 23.4999 11.5153 23.5 11.7522C23.5 11.7523 23.5 11.7524 23.5 11.7524V22.7509C23.5 22.9499 23.421 23.1406 23.2803 23.2813C23.1397 23.4219 22.9489 23.5009 22.75 23.5009H17.9375C17.7386 23.5009 17.5478 23.4219 17.4072 23.2813C17.2665 23.1406 17.1875 22.9499 17.1875 22.7509V16.6259V15.6259H16.1875H11.8125H10.8125V16.6259V22.7509C10.8125 22.9499 10.7335 23.1406 10.5928 23.2813C10.4522 23.4219 10.2614 23.5009 10.0625 23.5009H5.25C5.05109 23.5009 4.86032 23.4219 4.71967 23.2813C4.57902 23.1406 4.5 22.9499 4.5 22.7509L4.5 11.7516C4.5 11.7515 4.5 11.7514 4.5 11.7514C4.50009 11.5144 4.552 11.2803 4.65209 11.0656C4.75221 10.8507 4.89812 10.6604 5.07958 10.5079L5.07984 10.5077Z" stroke="#9A9CAA" stroke-width="2"/>
</svg>
