<svg width="18" height="18" viewBox="0 0 18 18" fill="none"
    xmlns="http://www.w3.org/2000/svg">
    <path fill-rule="evenodd" clip-rule="evenodd" d="M9.46591 0.0420984C11.455 0.24101 13.3103 1.1346 14.7059 2.56585C16.2263 4.11034 17.1252 6.1603 17.2312 8.32497C17.3373 10.4896 16.643 12.6176 15.2809 14.3033C14.0281 15.8606 12.27 16.9305 10.3112 17.3278C8.35244 17.725 6.31641 17.4245 4.55591 16.4783C2.79163 15.5117 1.41432 13.9666 0.655909 12.1033C-0.105895 10.2305 -0.207292 8.15403 0.36841 6.21585C0.942875 4.28521 2.16585 2.6119 3.83091 1.47835C5.48197 0.351988 7.47713 -0.156541 9.46591 0.0420984ZM10.0559 16.1033C11.7345 15.7629 13.2418 14.8479 14.3184 13.5158C15.4842 12.067 16.0773 10.2405 15.9851 8.38323C15.8929 6.52592 15.1219 4.76713 13.8184 3.44085C12.6245 2.22211 11.0402 1.46175 9.34255 1.29267C7.64486 1.12358 5.94174 1.55654 4.53091 2.51585C3.46895 3.24759 2.6114 4.23835 2.0395 5.39426C1.4676 6.55017 1.20028 7.83295 1.26287 9.12108C1.32546 10.4092 1.71589 11.66 2.39717 12.755C3.07845 13.8501 4.02801 14.753 5.15591 15.3783C6.65381 16.1868 8.38808 16.4434 10.0559 16.1033ZM7.97466 6.25335H9.53716V5.00335H7.97466V6.25335ZM9.53716 7.50335V12.5033H7.97466V7.50335H9.53716Z" fill="#CDCDCD"/>
</svg>
