<svg width="35" height="38" viewBox="0 0 35 38" fill="none"
    xmlns="http://www.w3.org/2000/svg">
    <path fill-rule="evenodd" clip-rule="evenodd" d="M18.8464 0.130002C18.3084 0.350244 18.046 0.798199 18.046 1.49628C18.046 2.07763 18.1002 2.20863 18.4817 2.54946C19.1196 3.11948 19.85 3.09573 20.4605 2.48517C20.8323 2.11338 20.9141 1.93062 20.9141 1.47133C20.9141 1.01204 20.8323 0.829281 20.4605 0.457497C19.9928 -0.0102009 19.4555 -0.119188 18.8464 0.130002ZM13.9668 0.707487C13.3805 1.10262 12.9724 2.05122 13.0989 2.72515C13.2885 3.73538 14.4644 4.55045 15.4064 4.32447C16.4806 4.06675 17.0446 3.40602 17.0446 2.40513C17.0446 0.821677 15.2589 -0.16321 13.9668 0.707487ZM21.8019 1.04832C21.5088 1.37208 21.5211 2.04268 21.8251 2.31775C22.1488 2.61083 22.8194 2.59855 23.0945 2.29454C23.3738 1.98599 23.3799 1.28817 23.1057 1.01391C22.8189 0.72723 22.0747 0.74684 21.8019 1.04832ZM24.3158 1.58365C23.7495 1.92982 23.579 2.17421 23.3963 2.90097C23.2483 3.48953 23.1743 3.57237 22.4418 3.96883C21.2541 4.61182 20.9597 4.63369 20.0027 4.15065C18.5975 3.44124 17.1621 3.66935 16.2775 4.74255C15.386 5.82415 15.4226 7.4056 16.3632 8.44798C16.979 9.13058 17.4959 9.34189 18.5492 9.34189C20.0283 9.34189 21.0616 8.42637 21.3108 6.89521C21.4756 5.88271 21.6453 5.66967 22.733 5.10913C23.6819 4.62009 23.6864 4.61929 24.2004 4.83619C24.484 4.95585 24.8803 5.08912 25.0812 5.13221C25.3316 5.1861 25.5293 5.37326 25.7101 5.72757C26.1152 6.52156 27.0505 8.92008 27.0505 9.165C27.0505 9.28479 26.8919 9.71807 26.698 10.1277C25.7629 12.1045 26.8106 14.0109 28.8321 14.0109C30.7224 14.0109 31.8781 12.1054 31.0191 10.4051C30.6779 9.72968 30.0602 9.26478 29.2245 9.05441C28.8638 8.96357 28.5101 8.74946 28.2712 8.47746C27.9005 8.05512 26.6503 5.30029 26.6503 4.90556C26.6503 4.79631 26.7749 4.42506 26.9273 4.08062C27.3808 3.05531 27.049 2.02014 26.1115 1.53536C25.5919 1.2667 24.7994 1.28791 24.3158 1.58365ZM9.10706 2.65392C8.45314 2.951 7.79175 3.68029 7.57177 4.34689C7.47186 4.64957 7.4341 5.21451 7.47532 5.79107C7.51268 6.31199 7.4868 6.88881 7.41796 7.0729C7.27176 7.46363 6.00406 8.80109 5.25303 9.35696C4.8012 9.69139 4.61524 9.74208 3.83873 9.74208C3.13118 9.74208 2.85264 9.80465 2.50367 10.0422C1.47582 10.7418 1.18515 11.7774 1.73075 12.7963C2.11094 13.5062 2.74338 13.8775 3.57219 13.8775C4.87884 13.8775 5.70658 12.9326 5.70658 11.4411V10.6475L6.67026 9.65351C8.10337 8.17571 8.25838 8.10181 9.69055 8.21373C11.073 8.32192 11.633 8.18412 12.3423 7.56141C13.9404 6.15818 13.5019 3.42883 11.5471 2.61229C10.8843 2.33549 9.76619 2.35457 9.10706 2.65392ZM29.3736 4.59568C28.1598 5.1242 27.9198 6.71806 28.911 7.66759C29.6776 8.40209 31.1584 8.2168 31.724 7.31555C32.1064 6.70618 32.0325 5.61778 31.575 5.12153C30.962 4.45694 30.1423 4.26111 29.3736 4.59568ZM13.944 5.21718C13.6049 5.41475 13.6222 6.35054 13.9685 6.53583C14.3641 6.74741 14.7504 6.70125 15.0445 6.4071C15.7373 5.71436 14.8105 4.71253 13.944 5.21718ZM4.44689 6.57025C4.00027 7.20777 4.35725 8.00789 5.08841 8.00789C5.72726 8.00789 6.02674 7.73122 6.02674 7.1408C6.02674 6.55037 5.72726 6.2737 5.08841 6.2737C4.7912 6.2737 4.5891 6.36722 4.44689 6.57025ZM22.6313 6.76515C21.6201 7.39279 21.5858 9.01066 22.5701 9.65564C22.9901 9.93071 23.8722 9.93925 24.3869 9.67312C25.4474 9.12471 25.4417 7.38745 24.3771 6.75874C23.9074 6.48127 23.0838 6.48421 22.6313 6.76515ZM12.6871 7.79365C12.3904 8.04885 12.3158 8.22574 12.3158 8.67489C12.3158 9.64804 13.2004 10.1462 14.1011 9.68032C14.5355 9.45581 14.6443 9.23744 14.6443 8.59125C14.6443 7.59089 13.4763 7.11492 12.6871 7.79365ZM32.5601 7.7427C32.216 7.8813 31.8528 8.52242 31.8528 8.99158C31.8528 9.44127 32.4386 10.1032 32.9324 10.2116C34.1967 10.4894 35.0487 8.91541 34.1309 7.99762C33.7231 7.58995 33.1647 7.49924 32.5601 7.7427ZM8.90603 8.91821C8.19942 9.28813 7.80282 10.1444 7.90287 11.0842C7.9745 11.7559 7.94529 11.8765 7.59498 12.36C6.94066 13.2633 6.22644 13.7441 5.53863 13.7441C4.46917 13.7441 3.88502 14.5403 4.133 15.6598C4.23039 16.0994 4.19463 16.2656 3.88848 16.7937C3.12371 18.1129 2.76753 18.4008 1.8911 18.4084C0.787751 18.4178 -0.0914837 19.4242 0.007632 20.5637C0.16491 22.3701 2.28996 23.056 3.54978 21.7071C3.95145 21.277 4.05763 20.458 3.83286 19.5216C3.66424 18.8187 3.67158 18.7525 3.9808 18.1686C4.40914 17.3597 5.19446 16.5454 5.54624 16.5454C6.32649 16.5454 7.01296 15.7072 6.85982 14.9413C6.80473 14.6661 6.8825 14.4345 7.1569 14.0564C7.59205 13.4562 8.44687 12.679 8.67939 12.6721C8.7685 12.6694 9.27581 12.6543 9.80661 12.6387C10.7256 12.6115 10.7952 12.5866 11.2649 12.1167C11.6983 11.683 11.7648 11.5294 11.8124 10.8494C11.8578 10.202 11.8152 9.99928 11.552 9.60869C10.9605 8.73092 9.82835 8.43544 8.90603 8.91821ZM0.493739 14.6676C0.174515 14.9868 0.103813 15.1701 0.103813 15.6784C0.103813 16.1866 0.174515 16.3699 0.493739 16.6891C0.818433 17.0137 0.992919 17.079 1.53585 17.079C2.53782 17.079 3.14185 16.3644 2.95989 15.3943C2.75712 14.3134 1.28253 13.8788 0.493739 14.6676ZM5.0628 18.3215C4.6654 18.7447 4.67421 19.4745 5.08147 19.8572C5.74874 20.4839 6.90718 19.9907 6.90718 19.08C6.90718 18.1545 5.69004 17.654 5.0628 18.3215ZM6.57368 21.2071C6.16734 21.3734 5.8137 21.821 5.37308 22.7265C4.81628 23.8709 4.48785 24.015 3.30566 23.6343C2.81822 23.4773 2.28556 23.3488 2.12201 23.3488C1.6307 23.3488 1.08603 23.7102 0.899806 24.1597C0.662222 24.7334 0.850182 25.4136 1.76277 27.2841C4.21651 32.3134 8.76383 35.988 14.1469 37.2914C20.7451 38.889 27.3784 37.0441 32.1223 32.2918C33.588 30.8236 35.2012 28.6416 34.9795 28.4272C34.7099 28.1665 28.2016 24.0158 28.064 24.0169C27.9835 24.0174 27.7795 24.2595 27.6109 24.5549C27.223 25.234 25.7385 26.8137 24.9314 27.4061C21.0276 30.272 15.7813 30.0712 11.967 26.9102C10.7862 25.9317 9.94148 24.7795 9.09079 22.987C8.54012 21.8267 8.29213 21.4455 7.98424 21.2862C7.55536 21.0645 6.99855 21.0333 6.57368 21.2071ZM7.57417 24.416C8.06935 24.9112 7.7628 25.75 7.0866 25.75C6.70374 25.75 6.24018 25.3116 6.24018 24.9496C6.24018 24.8029 6.36024 24.5627 6.50698 24.416C6.65372 24.2693 6.89384 24.1492 7.04058 24.1492C7.18731 24.1492 7.42743 24.2693 7.57417 24.416ZM5.03959 25.9602C5.22301 26.1403 5.43552 26.5419 5.51195 26.8525C5.63241 27.343 5.77195 27.501 6.57048 28.0511C7.59859 28.7595 8.0404 28.8345 9.00808 28.4649C9.75805 28.1785 10.4549 28.3694 11.0236 29.0171C11.5854 29.6569 11.677 30.2598 11.3234 30.9903C10.411 32.875 7.70757 32.2219 7.70757 30.1167C7.70757 29.5124 7.3522 29.0791 6.36411 28.4789C5.58292 28.0044 5.53837 27.9942 4.63685 28.0847C3.73161 28.1756 3.70279 28.1689 3.30833 27.7745C2.99764 27.4636 2.90613 27.2543 2.90947 26.8608C2.91427 26.274 3.1033 25.9742 3.65157 25.6837C4.12714 25.4316 4.59617 25.5251 5.03959 25.9602ZM6.4803 29.9121C6.85422 30.286 6.49044 30.9165 5.99206 30.7585C5.65589 30.6517 5.53743 30.3349 5.71179 30.0092C5.86693 29.719 6.24018 29.6719 6.4803 29.9121ZM16.0864 30.7329C16.4859 30.9546 16.9101 31.6026 16.9112 31.9931C16.9135 32.7863 16.1599 33.4871 15.3047 33.4871C14.731 33.4871 13.9773 32.7421 13.9773 32.1752C13.9773 31.5417 14.1998 31.109 14.6743 30.8197C15.1741 30.515 15.642 30.4863 16.0864 30.7329ZM12.5826 33.5478C12.9796 33.9447 13.0002 34.3309 12.6433 34.6877C12.2808 35.0503 11.6479 35.0354 11.3837 34.658C11.0786 34.2225 11.1297 33.8097 11.5275 33.4969C11.9829 33.1386 12.1833 33.1483 12.5826 33.5478Z" fill="url(#paint0_linear_180_321)"/>
    <defs>
        <linearGradient id="paint0_linear_180_321" x1="3.20158" y1="24.0786" x2="33.0163" y2="28.8809" gradientUnits="userSpaceOnUse">
            <stop stop-color="white"/>
            <stop offset="1" stop-color="#929191"/>
        </linearGradient>
    </defs>
</svg>
