<svg width="256" height="257" viewBox="0 0 256 257" fill="none" xmlns="http://www.w3.org/2000/svg">
    <path fill-rule="evenodd" clip-rule="evenodd"
        d="M6.41675 233.939C3.7524 235.095 2.43101 236.343 1.09154 238.967C-0.221688 241.54 -0.377899 246.751 0.77504 249.511C2.49396 253.625 8.32452 256.879 12.4228 256.012C17.0135 255.041 21.5542 250.609 21.5542 247.1C21.5542 245.976 21.2383 245.84 18.6398 245.84C16.6079 245.84 15.7254 246.074 15.7254 246.612C15.7254 248.1 12.8599 250.153 10.7837 250.153C8.41779 250.153 6.68079 248.75 5.82104 246.144C5.04639 243.798 5.73478 241.784 7.89144 240.087C10.1332 238.324 12.3726 238.496 14.4698 240.594C15.9154 242.039 16.6924 242.342 18.9493 242.342C21.637 242.342 21.6743 242.317 21.2808 240.739C19.8055 234.829 12.2904 231.391 6.41675 233.939ZM99.3689 234.09C95.8687 236.23 94.8795 239.232 96.5285 242.708C97.3935 244.53 98.283 245.206 102.106 246.942C106.711 249.034 107.659 250.104 105.427 250.688C103.579 251.171 101.409 250.134 101.409 248.769C101.409 247.741 101.032 247.588 98.4945 247.588C95.7591 247.588 95.5801 247.68 95.5801 249.075C95.5801 254.158 101.64 257.409 107.765 255.61C110.945 254.675 112.749 252.432 112.749 249.411C112.749 246.032 111.179 244.227 106.313 242.009C102.057 240.07 101.145 239.133 102.867 238.473C104.485 237.852 106.622 238.802 107.001 240.311C107.319 241.579 107.684 241.759 109.924 241.759C112.441 241.759 112.484 241.727 112.484 239.798C112.484 237.543 110.817 235.138 108.381 233.879C106.056 232.677 101.506 232.783 99.3689 234.09ZM192.939 233.939C190.275 235.095 188.953 236.343 187.614 238.967C186.3 241.54 186.144 246.751 187.297 249.511C189.016 253.625 194.847 256.879 198.945 256.012C203.536 255.041 208.076 250.609 208.076 247.1C208.076 245.976 207.76 245.84 205.162 245.84C203.13 245.84 202.247 246.074 202.247 246.612C202.247 248.1 199.382 250.153 197.306 250.153C194.94 250.153 193.203 248.75 192.343 246.144C191.568 243.798 192.257 241.784 194.414 240.087C196.655 238.324 198.895 238.496 200.992 240.594C202.438 242.039 203.214 242.342 205.471 242.342C208.159 242.342 208.196 242.317 207.803 240.739C206.328 234.829 198.813 231.391 192.939 233.939ZM23.3028 244.674V255.749H26.2172H29.1316V251.668V247.588H33.2118H37.292V251.668V255.749H40.2064H43.1208V244.674V233.599H40.2064H37.292V237.679V241.759H33.2118H29.1316V237.679V233.599H26.2172H23.3028V244.674ZM49.5949 241.906C47.866 246.474 45.9682 251.457 45.3771 252.98L44.3035 255.749H47.4528H50.6021L51.6134 253.099L52.6253 250.45L55.8416 250.622L59.0579 250.794L59.881 253.271L60.7046 255.749H63.8533H67.002L65.9284 252.98C65.3373 251.457 63.4395 246.474 61.7107 241.906L58.5672 233.601H55.6528H52.7383L49.5949 241.906ZM68.1847 244.625V255.749H71.0991H74.0135V252.251C74.0135 248.757 74.0153 248.754 75.754 248.754C77.2957 248.754 77.695 249.152 79.2595 252.251C81.0221 255.743 81.0285 255.749 83.6392 255.749C85.0772 255.749 86.254 255.623 86.254 255.468C86.254 255.314 85.4048 253.466 84.3672 251.362C83.1537 248.901 82.6979 247.389 83.0896 247.125C84.7059 246.034 85.6712 243.655 85.6712 240.764C85.6712 238.2 85.3925 237.385 83.9715 235.794L82.2724 233.89L75.2283 233.696L68.1847 233.502V244.625ZM88.0027 244.674V255.749H90.9171H93.8315V244.674V233.599H90.9171H88.0027V244.674ZM114.232 244.674V255.749H117.122H120.012L120.182 251.283L120.353 246.818L122.106 251.137C123.814 255.346 123.912 255.457 125.89 255.457C127.868 255.457 127.966 255.346 129.674 251.137L131.427 246.818L131.598 251.283L131.768 255.749H134.658H137.548V244.674V233.599H134.472H131.397L128.829 240.302C127.417 243.989 126.079 247.005 125.856 247.005C125.632 247.005 124.302 243.989 122.901 240.302L120.353 233.6L117.292 233.599H114.232V244.674ZM144.022 241.906C142.293 246.474 140.395 251.457 139.804 252.98L138.73 255.749H141.88H145.029L146.04 253.099L147.052 250.45L150.268 250.622L153.485 250.794L154.308 253.271L155.131 255.749H158.28H161.429L160.355 252.98C159.764 251.457 157.866 246.474 156.137 241.906L152.994 233.601H150.08H147.165L144.022 241.906ZM158.531 236.513V239.428H161.737H164.943V247.588V255.749H167.857H170.772V247.588V239.428H173.978H177.184V236.513V233.599H167.857H158.531V236.513ZM178.932 244.674V255.749H181.847H184.761V244.674V233.599H181.847H178.932V244.674ZM79.5789 239.68C81.0751 241.964 79.8796 243.508 76.6161 243.508H74.0135V240.885V238.262H76.3316C78.1438 238.262 78.8526 238.572 79.5789 239.68ZM57.11 245.615C57.11 245.739 56.4262 245.84 55.5904 245.84C54.3716 245.84 54.1542 245.637 54.4905 244.82C54.7219 244.258 55.0501 243.312 55.2203 242.716C55.475 241.828 55.6714 241.97 56.3202 243.512C56.7544 244.545 57.11 245.492 57.11 245.615ZM151.537 245.615C151.537 245.739 150.853 245.84 150.017 245.84C148.798 245.84 148.581 245.637 148.917 244.82C149.149 244.258 149.477 243.312 149.647 242.716C149.902 241.828 150.098 241.97 150.747 243.512C151.181 244.545 151.537 245.492 151.537 245.615ZM211.493 249.347C210.051 250.189 209.623 252.73 210.657 254.309C212.701 257.428 216.82 256.266 216.82 252.571C216.82 249.374 214.181 247.777 211.493 249.347Z"
        fill="url(#paint0_linear_202_11)" />
    <path fill-rule="evenodd" clip-rule="evenodd"
        d="M218.695 244.075V255.149H224.692C232.269 255.149 235.16 253.941 237.244 249.904C238.394 247.675 238.56 246.641 238.349 243.016C238.075 238.312 237.177 236.571 233.856 234.311C232.137 233.142 231.214 233 225.312 233H218.695V244.075ZM240.262 244.075V255.149H248.131H256V252.235V249.321H251.045H246.091V241.16V233H243.176H240.262V244.075ZM231.496 240.105C232.315 240.984 232.684 242.17 232.684 243.92C232.684 247.476 230.803 249.321 227.173 249.321H224.524V244.075V238.829H227.416C229.64 238.829 230.582 239.123 231.496 240.105Z"
        fill="url(#paint1_linear_202_11)" />
    <path fill-rule="evenodd" clip-rule="evenodd"
        d="M114.208 1.96933C116.221 1.96933 118.188 2.56547 119.862 3.68237C121.535 4.79927 122.839 6.38676 123.609 8.2441C124.38 10.1014 124.581 12.1452 124.188 14.1169C123.796 16.0887 122.827 17.8998 121.404 19.3214C119.981 20.7429 118.167 21.711 116.194 22.1032C114.22 22.4954 112.174 22.2941 110.314 21.5248C108.455 20.7554 106.866 19.4526 105.748 17.7811C104.63 16.1095 104.033 14.1443 104.033 12.1339C104.044 9.44162 105.12 6.86284 107.026 4.95908C108.932 3.05532 111.513 1.98074 114.208 1.96933ZM124.308 169.499C124.292 171.116 123.798 172.693 122.887 174.03C121.976 175.367 120.689 176.405 119.189 177.014C117.688 177.622 116.041 177.773 114.455 177.447C112.869 177.122 111.415 176.336 110.275 175.186C109.136 174.037 108.362 172.577 108.052 170.989C107.742 169.402 107.909 167.758 108.532 166.265C109.156 164.772 110.207 163.497 111.554 162.6C112.902 161.703 114.485 161.224 116.104 161.224C118.29 161.237 120.381 162.115 121.919 163.666C123.458 165.218 124.317 167.316 124.308 169.499ZM98.0391 175.49C98.7361 175.434 99.4372 175.523 100.098 175.751C100.759 175.979 101.366 176.341 101.879 176.815C102.393 177.289 102.803 177.864 103.084 178.503C103.364 179.143 103.509 179.834 103.509 180.533C103.509 181.231 103.364 181.922 103.084 182.562C102.803 183.202 102.393 183.777 101.879 184.25C101.366 184.724 100.759 185.086 100.098 185.314C99.4372 185.542 98.7361 185.631 98.0391 185.575C97.3422 185.631 96.6411 185.542 95.9802 185.314C95.3193 185.086 94.7128 184.724 94.1989 184.25C93.6851 183.777 93.275 183.202 92.9945 182.562C92.714 181.922 92.5692 181.231 92.5692 180.533C92.5692 179.834 92.714 179.143 92.9945 178.503C93.275 177.864 93.6851 177.289 94.1989 176.815C94.7128 176.341 95.3193 175.979 95.9802 175.751C96.6411 175.523 97.3422 175.434 98.0391 175.49ZM133.695 200C170.454 200 202.561 180.216 220 150.745L183.078 126.947C178.221 135.784 171.073 143.153 162.385 148.282C153.696 153.411 143.787 156.112 133.695 156.1C109.007 156.1 88.1784 140.107 80.4482 118.04C77.6086 109.921 68.3013 109.689 64.6732 117.014C62.9369 120.559 62.539 124.815 58.2778 126.076C55.9953 126.712 53.2136 126.232 50.7864 125.054C43.0562 121.44 36.5885 126.232 39.5727 134.275C53.6259 172.654 90.4681 200 133.695 200ZM71.6907 127.262C72.3037 127.256 72.9117 127.372 73.4791 127.604C74.0466 127.835 74.5621 128.178 74.9956 128.611C75.429 129.044 75.7717 129.559 76.0036 130.126C76.2355 130.692 76.352 131.3 76.3462 131.912C76.3529 132.528 76.2376 133.14 76.0069 133.711C75.7763 134.283 75.4348 134.803 75.0022 135.242C74.5695 135.681 74.0543 136.031 73.486 136.27C72.9177 136.51 72.3076 136.635 71.6907 136.638C70.4371 136.635 69.2358 136.135 68.3493 135.25C67.4628 134.364 66.9631 133.164 66.9593 131.912C66.9621 131.296 67.087 130.686 67.3267 130.118C67.5664 129.55 67.9163 129.035 68.356 128.603C68.7958 128.171 69.3169 127.83 69.8892 127.599C70.4615 127.369 71.0738 127.254 71.6907 127.262ZM95.2032 156.104C95.7832 157.636 95.9991 159.282 95.8341 160.912C95.669 162.541 95.1273 164.11 94.2518 165.495C93.4087 166.867 92.2569 168.023 90.8879 168.872C89.519 169.72 87.9707 170.238 86.3661 170.384C83.5826 170.655 80.8054 169.811 78.6449 168.037C76.4844 166.263 75.1176 163.705 74.845 160.924C74.5303 157.694 74.845 155.963 72.085 153.831C70.0376 152.259 66.0912 149.972 64.0401 148.946C60.9654 147.374 59.9381 149.029 57.019 149.343C55.0662 149.504 53.1283 148.892 51.6233 147.639C50.1183 146.386 49.1668 144.592 48.9741 142.644C48.8059 141.041 49.1886 139.429 50.0593 138.073C50.8978 136.7 52.1708 135.646 53.6766 135.077C57.4639 133.581 61.7251 135.554 63.2226 139.338C64.2463 142.012 63.2226 143.746 65.9826 145.798C67.7913 147.132 71.5822 149.658 73.9407 150.857C77.095 152.35 78.513 151.327 81.5117 150.135C84.1191 149.116 87.0243 149.172 89.5903 150.291C92.1563 151.409 94.1735 153.498 95.1996 156.1L95.2032 156.104ZM66.7242 156.975C67.1524 156.96 67.5792 157.032 67.9791 157.186C68.379 157.34 68.7438 157.572 69.0519 157.87C69.3599 158.167 69.6049 158.524 69.7722 158.918C69.9395 159.312 70.0257 159.736 70.0257 160.164C70.0257 160.592 69.9395 161.015 69.7722 161.409C69.6049 161.804 69.3599 162.16 69.0519 162.457C68.7438 162.755 68.379 162.988 67.9791 163.141C67.5792 163.295 67.1524 163.367 66.7242 163.353C66.2959 163.367 65.8692 163.295 65.4693 163.141C65.0694 162.988 64.7045 162.755 64.3965 162.457C64.0884 162.16 63.8435 161.804 63.6762 161.409C63.5089 161.015 63.4226 160.592 63.4226 160.164C63.4226 159.736 63.5089 159.312 63.6762 158.918C63.8435 158.524 64.0884 158.167 64.3965 157.87C64.7045 157.572 65.0694 157.34 65.4693 157.186C65.8692 157.032 66.2959 156.96 66.7242 156.975ZM42.3038 75.4232C44.2713 75.429 46.1565 76.2125 47.5474 77.6026C48.9383 78.9926 49.7217 80.8762 49.7265 82.8416C49.7213 83.8079 49.5249 84.7637 49.1484 85.6539C48.772 86.544 48.2231 87.3511 47.5332 88.0285C46.8433 88.7059 46.0261 89.2403 45.1286 89.6009C44.2311 89.9616 43.2711 90.1414 42.3038 90.1299C41.3428 90.1391 40.3896 89.9568 39.4998 89.5939C38.6101 89.231 37.8016 88.6946 37.1217 88.0161C36.4418 87.3375 35.904 86.5305 35.5398 85.6421C35.1756 84.7536 34.9923 83.8016 35.0005 82.8416C34.9895 81.8747 35.17 80.9151 35.5316 80.0182C35.8932 79.1212 36.4288 78.3045 37.1076 77.6151C37.7863 76.9256 38.5948 76.377 39.4866 76.0009C40.3784 75.6247 41.3358 75.4284 42.3038 75.4232ZM105.766 39.5599C107.33 39.5983 108.818 40.2461 109.911 41.3652C111.004 42.4842 111.616 43.9857 111.616 45.5492C111.616 47.1126 111.004 48.6141 109.911 49.7331C108.818 50.8522 107.33 51.5 105.766 51.5384C104.201 51.5 102.713 50.8522 101.62 49.7331C100.527 48.6141 99.9155 47.1126 99.9155 45.5492C99.9155 43.9857 100.527 42.4842 101.62 41.3652C102.713 40.2461 104.201 39.5983 105.766 39.5599ZM65.1036 95.3622C65.8249 95.3435 66.5425 95.4693 67.2143 95.7321C67.8861 95.995 68.4984 96.3895 69.0151 96.8925C69.5318 97.3954 69.9424 97.9967 70.2228 98.6607C70.5032 99.3247 70.6477 100.038 70.6477 100.759C70.6477 101.48 70.5032 102.193 70.2228 102.857C69.9424 103.521 69.5318 104.122 69.0151 104.625C68.4984 105.128 67.8861 105.523 67.2143 105.786C66.5425 106.048 65.8249 106.174 65.1036 106.155C63.695 106.119 62.3563 105.535 61.3729 104.526C60.3895 103.518 59.8392 102.166 59.8392 100.759C59.8392 99.3512 60.3895 97.9993 61.3729 96.9912C62.3563 95.9831 63.695 95.3986 65.1036 95.3622ZM61.5153 32.9401C62.7037 32.9532 63.8397 33.4307 64.6801 34.2701C65.5205 35.1096 65.9984 36.2444 66.0116 37.4316C65.9954 38.6105 65.5139 39.7353 64.672 40.5615C63.83 41.3877 62.6955 41.8485 61.5153 41.8436C60.935 41.8445 60.3602 41.7311 59.8239 41.5097C59.2876 41.2883 58.8004 40.9633 58.3901 40.5535C57.9797 40.1436 57.6544 39.6568 57.4328 39.1211C57.2112 38.5854 57.0976 38.0112 57.0986 37.4316C57.0937 36.2526 57.5549 35.1194 58.382 34.2783C59.2091 33.4372 60.3351 32.9563 61.5153 32.9401ZM194.277 23.4873C196.146 23.5023 197.969 24.0695 199.515 25.1175C201.062 26.1655 202.264 27.6474 202.969 29.3763C203.674 31.1053 203.85 33.0041 203.477 34.8333C203.103 36.6625 202.196 38.3404 200.87 39.6554C199.543 40.9705 197.857 41.8639 196.023 42.2231C194.189 42.5823 192.289 42.3911 190.564 41.6738C188.839 40.9564 187.364 39.7449 186.327 38.192C185.29 36.6391 184.736 34.8142 184.735 32.9473C184.739 31.7 184.989 30.4657 185.47 29.3149C185.952 28.1642 186.656 27.1196 187.543 26.241C188.429 25.3624 189.48 24.6669 190.636 24.1944C191.791 23.7219 193.029 23.4816 194.277 23.4873ZM159.02 34.5914C160.733 34.5821 162.41 35.0816 163.838 36.0264C165.266 36.9712 166.381 38.3187 167.041 39.8978C167.701 41.4769 167.876 43.2163 167.545 44.8951C167.213 46.5739 166.389 48.1164 165.178 49.3266C163.967 50.5368 162.424 51.3602 160.743 51.6922C159.063 52.0242 157.321 51.8499 155.74 51.1912C154.159 50.5326 152.81 49.4194 151.863 47.9931C150.917 46.5668 150.416 44.8917 150.425 43.1806C150.435 40.9058 151.345 38.7272 152.955 37.1187C154.565 35.5102 156.746 34.6019 159.023 34.5914H159.02ZM210.45 40.2645C211.762 40.2638 213.044 40.6517 214.135 41.3793C215.226 42.1068 216.077 43.1412 216.579 44.3516C217.081 45.562 217.213 46.8941 216.957 48.1792C216.701 49.4644 216.07 50.6449 215.142 51.5714C214.215 52.4979 213.033 53.1288 211.747 53.3843C210.46 53.6397 209.127 53.5082 207.915 53.0065C206.703 52.5047 205.668 51.6552 204.939 50.5655C204.211 49.4757 203.823 48.1946 203.823 46.8843C203.824 45.1289 204.523 43.4457 205.765 42.2045C207.008 40.9632 208.693 40.2655 210.45 40.2645ZM153.496 3.85916C154.656 3.89218 155.758 4.37587 156.567 5.20747C157.376 6.03908 157.829 7.15305 157.829 8.31271C157.829 9.47238 157.376 10.5864 156.567 11.418C155.758 12.2496 154.656 12.7333 153.496 12.7663C152.9 12.7832 152.306 12.6806 151.751 12.4644C151.195 12.2482 150.688 11.9229 150.26 11.5077C149.833 11.0924 149.493 10.5958 149.261 10.047C149.028 9.49819 148.909 8.90848 148.909 8.31271C148.909 7.71695 149.028 7.12724 149.261 6.57846C149.493 6.02968 149.833 5.53298 150.26 5.11776C150.688 4.70253 151.195 4.3772 151.751 4.16102C152.306 3.94484 152.9 3.84219 153.496 3.85916ZM137.562 7.94946e-06C139.03 -0.000706248 140.465 0.433526 141.685 1.24776C142.906 2.06199 143.857 3.21963 144.419 4.5742C144.981 5.92877 145.128 7.41939 144.842 8.85745C144.555 10.2955 143.848 11.6164 142.81 12.6529C141.772 13.6895 140.449 14.3951 139.01 14.6805C137.57 14.966 136.078 14.8184 134.722 14.2564C133.366 13.6945 132.208 12.7435 131.393 11.5237C130.579 10.3039 130.145 8.87018 130.146 7.40394C130.145 6.43107 130.337 5.46757 130.709 4.56861C131.081 3.66966 131.627 2.85292 132.316 2.16517C133.005 1.47741 133.823 0.932155 134.723 0.560623C135.623 0.18909 136.588 -0.00141831 137.562 7.94946e-06ZM147.028 35.6971C146.739 38.8933 145.415 41.9082 143.256 44.2845C141.097 46.6609 138.221 48.2689 135.064 48.8648C131.907 49.4607 128.642 49.0119 125.764 47.5865C122.885 46.1611 120.551 43.8369 119.115 40.9663C117.678 38.0958 117.218 34.8356 117.804 31.6803C118.39 28.525 119.991 25.6467 122.362 23.482C124.734 21.3174 127.748 19.9844 130.946 19.6854C134.145 19.3864 137.354 20.1376 140.087 21.8252C143.006 23.6319 145.212 24.6653 148.446 23.4801C151.19 22.4192 153.85 21.1546 156.404 19.6968C157.981 18.7537 158.455 17.8901 158.611 15.9172C158.816 13.4301 159.975 11.1184 161.846 9.46543C163.718 7.81248 166.157 6.94631 168.653 7.04804C171.149 7.14978 173.509 8.21154 175.239 10.0113C176.97 11.8111 177.937 14.2094 177.938 16.7049C177.928 18.7723 177.266 20.784 176.046 22.4539C174.863 24.1125 174.704 24.8243 175.323 26.7141C176.82 31.202 180.134 38.3747 182.105 42.4759C183.762 45.9376 186.207 47.4372 189.839 48.2249C192.215 48.7395 194.396 49.9147 196.132 51.615C197.868 53.3153 199.087 55.4712 199.648 57.8339C200.209 60.1966 200.09 62.6698 199.305 64.9678C198.519 67.2659 197.099 69.2952 195.208 70.8214C193.317 72.3476 191.033 73.3085 188.619 73.5931C186.204 73.8778 183.759 73.4746 181.564 72.4301C179.37 71.3856 177.516 69.7424 176.216 67.6902C174.916 65.638 174.224 63.2605 174.219 60.8322C174.215 58.4146 174.869 56.0414 176.111 53.9667C178.242 50.6531 178.643 47.9756 177.215 44.2104C175.406 39.4804 172.801 33.0087 170.512 28.604C169.64 26.7972 168.855 26.5588 166.894 26.3203C165.499 26.0714 164.162 25.5654 162.952 24.8279C161.374 23.7439 160.419 23.6427 158.694 24.2714C156.04 25.401 153.457 26.691 150.96 28.1342C148.041 29.9409 147.252 32.3077 147.017 35.7007L147.028 35.6971ZM86.8364 43.0216C82.1049 42.2338 79.8188 41.2148 75.7928 44.2863C72.7976 46.6494 68.0626 51.3794 65.8524 53.898C62.539 57.6849 64.514 59.7301 63.8014 63.9867C63.4781 65.968 62.6073 67.8197 61.2871 69.3332C59.967 70.8468 58.25 71.962 56.3295 72.5532C54.4091 73.1444 52.3615 73.1882 50.4175 72.6795C48.4735 72.1709 46.7103 71.13 45.3266 69.6742C43.9429 68.2185 42.9936 66.4057 42.5858 64.44C42.1779 62.4743 42.3277 60.4339 43.0182 58.5487C43.7087 56.6635 44.9125 55.0084 46.494 53.7698C48.0754 52.5312 49.9717 51.7584 51.9692 51.5384C56.1508 50.982 58.2018 53.0344 62.1483 49.9557C64.7491 47.9105 69.7229 43.419 72.2442 40.503C75.478 36.7197 74.5303 34.2771 74.0528 29.5507C73.5951 25.4974 74.7666 21.4284 77.31 18.2373C79.8534 15.0462 83.5607 12.994 87.6177 12.5314C97.6376 11.4221 106.16 20.3292 104.5 30.342C104.174 32.334 103.458 34.2423 102.393 35.9578C101.329 37.6734 99.9361 39.1625 98.295 40.34C96.6539 41.5176 94.7966 42.3605 92.8292 42.8206C90.8618 43.2807 88.8229 43.349 86.8291 43.0216H86.8364ZM112.881 26.996C113.914 26.996 114.905 27.406 115.636 28.1358C116.366 28.8657 116.777 29.8555 116.777 30.8876C116.777 31.9198 116.366 32.9096 115.636 33.6395C114.905 34.3693 113.914 34.7793 112.881 34.7793C111.848 34.7793 110.857 34.3693 110.126 33.6395C109.396 32.9096 108.985 31.9198 108.985 30.8876C108.985 29.8555 109.396 28.8657 110.126 28.1358C110.857 27.406 111.848 26.996 112.881 26.996ZM98.1911 58.5774C98.0152 59.9224 97.5749 61.2193 96.8955 62.3937C96.2161 63.5681 95.311 64.5968 94.2323 65.4205C93.1535 66.2442 91.9223 66.8468 90.6096 67.1936C89.2969 67.5404 87.9285 67.6245 86.5832 67.4412C83.4253 66.9822 81.8228 66.3571 79.2039 68.4818C77.2071 70.1115 74.1396 73.3925 72.7289 75.098C71.669 76.3627 71.4484 77.3492 71.4628 78.3501C71.4773 79.351 71.7305 80.4712 71.5497 81.9202C71.2876 83.7741 70.3213 85.4562 68.8512 86.6177L68.7643 86.6827C68.2267 87.0591 67.6369 87.3549 67.0136 87.5608C66.0106 87.876 64.9758 88.0795 63.928 88.1678C62.7886 88.3521 61.7576 88.699 60.6037 90.1624C59.2038 91.8824 56.6247 95.5826 55.478 97.8338C53.9189 100.84 54.8811 102.242 55.9157 105.263C56.8337 107.839 56.6906 110.674 55.518 113.145C54.3453 115.616 52.2389 117.52 49.6614 118.441C48.159 118.969 46.5549 119.142 44.9743 118.949C43.3937 118.755 41.8792 118.199 40.5488 117.325C39.2184 116.451 38.1081 115.281 37.3045 113.908C36.5009 112.535 36.0256 110.995 35.9156 109.408C35.8213 108.055 35.9952 106.697 36.4274 105.412C36.8596 104.127 37.5416 102.94 38.4342 101.918C39.3268 100.897 40.4125 100.062 41.6291 99.4609C42.8456 98.8598 44.1689 98.5045 45.5232 98.4155C48.71 98.2385 50.4029 98.5239 52.5552 95.9259C54.4289 93.4769 56.1042 90.8827 57.5652 88.1678C58.3501 86.7224 58.3718 85.7287 58.1729 84.7531C57.945 83.7197 57.4711 82.7151 57.3662 81.2373C57.2832 79.9849 57.528 78.7326 58.0766 77.6035C58.6253 76.4745 59.4588 75.5076 60.4952 74.7981C61.3644 74.2579 62.3406 73.9126 63.3565 73.7863C64.7021 73.5948 65.7294 73.7863 66.7133 73.808C67.7985 73.8333 68.8186 73.6526 70.157 72.518C71.8716 71.1052 75.1272 68.0048 76.7152 66.0138C78.8385 63.3833 78.1621 61.8114 77.7642 58.6497C77.3777 55.9423 78.0824 53.1923 79.7236 51.0034C81.3648 48.8145 83.8084 47.3656 86.518 46.9747C88.0967 46.756 89.7046 46.9046 91.2162 47.4089C92.7279 47.9132 94.1025 48.7596 95.2328 49.882C96.3631 51.0045 97.2185 52.3726 97.7322 53.8796C98.246 55.3867 98.4043 56.9919 98.1947 58.5702L98.1911 58.5774Z"
        fill="url(#paint2_linear_202_11)" />
    <defs>
        <linearGradient id="paint0_linear_202_11" x1="4.77992" y1="244.657" x2="186.93" y2="244.657"
            gradientUnits="userSpaceOnUse">
            <stop stop-color="#505050" />
            <stop offset="1" stop-color="#7F7F7F" />
        </linearGradient>
        <linearGradient id="paint1_linear_202_11" x1="218.491" y1="243.678" x2="256.275" y2="243.678"
            gradientUnits="userSpaceOnUse">
            <stop stop-color="#2C74BA" />
            <stop offset="1" stop-color="#4482BF" />
        </linearGradient>
        <linearGradient id="paint2_linear_202_11" x1="35.5282" y1="107.676" x2="220.851" y2="94.6892"
            gradientUnits="userSpaceOnUse">
            <stop stop-color="#434343" />
            <stop offset="1" stop-color="#868686" />
        </linearGradient>
    </defs>
</svg>