<svg width="111" height="118" viewBox="0 0 111 118" fill="none"
    xmlns="http://www.w3.org/2000/svg">
    <path fill-rule="evenodd" clip-rule="evenodd" d="M47.5155 1.15812C48.7086 1.15812 49.875 1.5087 50.867 2.16552C51.8591 2.82235 52.6323 3.75592 53.0889 4.84817C53.5455 5.94043 53.6649 7.14232 53.4322 8.30186C53.1994 9.46139 52.6248 10.5265 51.7812 11.3625C50.9375 12.1985 49.8626 12.7678 48.6924 12.9984C47.5222 13.2291 46.3092 13.1107 45.2069 12.6582C44.1046 12.2058 43.1624 11.4397 42.4996 10.4567C41.8367 9.47365 41.4829 8.31794 41.4829 7.13569C41.4897 5.55241 42.1274 4.03589 43.2573 2.91632C44.3871 1.79676 45.9176 1.16483 47.5155 1.15812ZM53.503 99.6786C53.4937 100.63 53.2006 101.557 52.6605 102.343C52.1204 103.13 51.3576 103.74 50.4681 104.098C49.5785 104.455 48.6021 104.544 47.6617 104.353C46.7214 104.162 45.8591 103.699 45.1836 103.023C44.5081 102.347 44.0496 101.489 43.8657 100.555C43.6818 99.6215 43.7808 98.6548 44.1503 97.7769C44.5198 96.899 45.1432 96.149 45.942 95.6215C46.7408 95.094 47.6793 94.8125 48.6392 94.8124C49.9351 94.8197 51.1751 95.3363 52.087 96.2486C52.9989 97.161 53.5082 98.3946 53.503 99.6786ZM37.9294 103.202C38.3426 103.169 38.7582 103.221 39.15 103.355C39.5419 103.489 39.9014 103.702 40.2061 103.981C40.5107 104.26 40.7538 104.598 40.9201 104.974C41.0864 105.35 41.1723 105.756 41.1723 106.167C41.1723 106.578 41.0864 106.984 40.9201 107.361C40.7538 107.737 40.5107 108.075 40.2061 108.354C39.9014 108.632 39.5419 108.845 39.15 108.979C38.7582 109.113 38.3426 109.166 37.9294 109.133C37.5162 109.166 37.1005 109.113 36.7087 108.979C36.3169 108.845 35.9573 108.632 35.6527 108.354C35.348 108.075 35.1049 107.737 34.9386 107.361C34.7723 106.984 34.6865 106.578 34.6865 106.167C34.6865 105.756 34.7723 105.35 34.9386 104.974C35.1049 104.598 35.348 104.26 35.6527 103.981C35.9573 103.702 36.3169 103.489 36.7087 103.355C37.1005 103.221 37.5162 103.169 37.9294 103.202ZM59.0681 117.616C80.861 117.616 99.8959 105.981 110.235 88.65L88.3454 74.6549C85.4656 79.8516 81.2281 84.1851 76.0772 87.2014C70.9262 90.2178 65.0513 91.8058 59.0681 91.7992C44.4316 91.7992 32.0834 82.394 27.5005 69.4168C25.817 64.6419 20.2991 64.5059 18.1481 68.8133C17.1187 70.8979 16.8828 73.4011 14.3566 74.1427C13.0034 74.5167 11.3542 74.2341 9.91522 73.5414C5.33233 71.4164 1.49789 74.2341 3.26713 78.9643C11.5987 101.534 33.4408 117.616 59.0681 117.616ZM22.3085 74.8397C22.6719 74.8363 23.0324 74.9047 23.3688 75.041C23.7052 75.1772 24.0108 75.3785 24.2678 75.6332C24.5248 75.8878 24.728 76.1906 24.8655 76.524C25.0029 76.8573 25.072 77.2145 25.0686 77.5746C25.0725 77.9369 25.0042 78.2965 24.8674 78.6326C24.7307 78.9686 24.5282 79.2746 24.2717 79.5329C24.0152 79.7912 23.7098 79.9967 23.3728 80.1376C23.0359 80.2786 22.6742 80.3521 22.3085 80.354C21.5653 80.3518 20.8531 80.0583 20.3275 79.5375C19.802 79.0167 19.5057 78.311 19.5035 77.5746C19.5051 77.2121 19.5792 76.8536 19.7213 76.5196C19.8634 76.1857 20.0708 75.8828 20.3315 75.6286C20.5923 75.3744 20.9012 75.1738 21.2405 75.0384C21.5798 74.9031 21.9428 74.8355 22.3085 74.8397ZM36.2481 91.8013C36.5919 92.7023 36.7199 93.6701 36.6221 94.6285C36.5242 95.5869 36.2031 96.5097 35.684 97.3242C35.1842 98.1307 34.5013 98.8106 33.6897 99.3097C32.8781 99.8088 31.9602 100.113 31.0089 100.199C29.3587 100.359 27.7122 99.8621 26.4314 98.8189C25.1505 97.7757 24.3402 96.2711 24.1786 94.636C23.992 92.7363 24.1786 91.7185 22.5423 90.4647C21.3285 89.5403 18.9888 88.1952 17.7728 87.5917C15.95 86.6674 15.3409 87.6406 13.6103 87.8255C12.4526 87.9203 11.3037 87.5604 10.4114 86.8233C9.51914 86.0863 8.95504 85.0312 8.8408 83.8858C8.74106 82.9433 8.96795 81.9953 9.48416 81.1977C9.9813 80.3904 10.736 79.7705 11.6287 79.4361C13.874 78.5563 16.4003 79.7166 17.2882 81.9414C17.8951 83.5139 17.2882 84.5339 18.9244 85.7409C19.9967 86.525 22.2442 88.0104 23.6424 88.7159C25.5125 89.5935 26.3531 88.9921 28.131 88.2909C29.6768 87.692 31.3992 87.725 32.9204 88.3827C34.4417 89.0404 35.6376 90.269 36.2459 91.7992L36.2481 91.8013ZM19.3641 92.3134C19.618 92.305 19.871 92.3472 20.1081 92.4376C20.3451 92.5281 20.5614 92.6648 20.7441 92.8398C20.9267 93.0148 21.0719 93.2244 21.1711 93.4561C21.2703 93.6879 21.3214 93.937 21.3214 94.1887C21.3214 94.4405 21.2703 94.6896 21.1711 94.9213C21.0719 95.1531 20.9267 95.3627 20.7441 95.5377C20.5614 95.7126 20.3451 95.8494 20.1081 95.9398C19.871 96.0303 19.618 96.0725 19.3641 96.064C19.1102 96.0725 18.8572 96.0303 18.6201 95.9398C18.383 95.8494 18.1667 95.7126 17.9841 95.5377C17.8014 95.3627 17.6562 95.1531 17.557 94.9213C17.4578 94.6896 17.4067 94.4405 17.4067 94.1887C17.4067 93.937 17.4578 93.6879 17.557 93.4561C17.6562 93.2244 17.8014 93.0148 17.9841 92.8398C18.1667 92.6648 18.383 92.5281 18.6201 92.4376C18.8572 92.3472 19.1102 92.305 19.3641 92.3134ZM4.88626 44.3547C6.0527 44.3581 7.17036 44.8189 7.99496 45.6364C8.81956 46.4538 9.28404 47.5615 9.28686 48.7173C9.28379 49.2856 9.16732 49.8477 8.94416 50.3712C8.72099 50.8946 8.39554 51.3692 7.98653 51.7676C7.57752 52.166 7.09304 52.4802 6.56096 52.6923C6.02889 52.9044 5.45974 53.0101 4.88626 53.0034C4.31651 53.0088 3.75139 52.9016 3.2239 52.6882C2.6964 52.4748 2.21712 52.1593 1.81402 51.7603C1.41093 51.3613 1.09211 50.8867 0.876189 50.3642C0.660265 49.8417 0.551563 49.2819 0.556433 48.7173C0.549922 48.1487 0.656939 47.5844 0.871327 47.0569C1.08572 46.5294 1.40324 46.0492 1.80564 45.6437C2.20805 45.2383 2.68738 44.9157 3.21607 44.6944C3.74476 44.4732 4.31238 44.3578 4.88626 44.3547ZM42.5101 23.2643C43.4377 23.2869 44.3197 23.6679 44.9677 24.3259C45.6157 24.984 45.9785 25.867 45.9785 26.7865C45.9785 27.7059 45.6157 28.5889 44.9677 29.247C44.3197 29.905 43.4377 30.286 42.5101 30.3086C41.5825 30.286 40.7005 29.905 40.0525 29.247C39.4045 28.5889 39.0418 27.7059 39.0418 26.7865C39.0418 25.867 39.4045 24.984 40.0525 24.3259C40.7005 23.6679 41.5825 23.2869 42.5101 23.2643ZM18.4033 56.0804C18.8309 56.0694 19.2564 56.1434 19.6546 56.298C20.0529 56.4525 20.4159 56.6845 20.7222 56.9803C21.0286 57.2761 21.272 57.6297 21.4383 58.0202C21.6045 58.4107 21.6901 58.8302 21.6901 59.254C21.6901 59.6779 21.6045 60.0974 21.4383 60.4879C21.272 60.8784 21.0286 61.232 20.7222 61.5278C20.4159 61.8236 20.0529 62.0556 19.6546 62.2101C19.2564 62.3647 18.8309 62.4387 18.4033 62.4277C17.5682 62.4063 16.7746 62.0625 16.1916 61.4697C15.6085 60.8768 15.2823 60.0818 15.2823 59.254C15.2823 58.4263 15.6085 57.6312 16.1916 57.0384C16.7746 56.4456 17.5682 56.1018 18.4033 56.0804ZM16.2759 19.3713C16.9805 19.3791 17.654 19.6598 18.1522 20.1535C18.6504 20.6472 18.9338 21.3146 18.9416 22.0127C18.932 22.706 18.6466 23.3675 18.1474 23.8533C17.6482 24.3392 16.9756 24.6102 16.2759 24.6073C15.9319 24.6078 15.5912 24.5411 15.2732 24.4109C14.9553 24.2807 14.6664 24.0896 14.4231 23.8486C14.1799 23.6076 13.987 23.3213 13.8556 23.0063C13.7242 22.6912 13.6569 22.3536 13.6574 22.0127C13.6545 21.3193 13.928 20.6529 14.4183 20.1583C14.9087 19.6637 15.5763 19.3808 16.2759 19.3713ZM94.9849 13.8124C96.0929 13.8212 97.1734 14.1548 98.0903 14.7711C99.0073 15.3874 99.7196 16.2588 100.138 17.2756C100.556 18.2923 100.66 19.409 100.439 20.4847C100.217 21.5604 99.6797 22.5471 98.8932 23.3205C98.1068 24.0938 97.1069 24.6192 96.0196 24.8305C94.9324 25.0417 93.8063 24.9293 92.7834 24.5074C91.7605 24.0856 90.8864 23.3731 90.2715 22.4599C89.6565 21.5466 89.3281 20.4735 89.3276 19.3756C89.3299 18.6421 89.478 17.9162 89.7637 17.2395C90.0493 16.5627 90.4668 15.9484 90.9922 15.4317C91.5177 14.915 92.1408 14.5061 92.8259 14.2282C93.511 13.9503 94.2447 13.809 94.9849 13.8124ZM74.0821 20.3425C75.0976 20.337 76.0919 20.6307 76.9386 21.1863C77.7854 21.742 78.4464 22.5344 78.8377 23.463C79.2289 24.3916 79.3329 25.4145 79.1363 26.4018C78.9396 27.3891 78.4513 28.2962 77.7334 29.0079C77.0154 29.7196 76.1002 30.2038 75.1039 30.3991C74.1076 30.5943 73.0753 30.4918 72.1379 30.1044C71.2006 29.7171 70.4006 29.0625 69.8395 28.2237C69.2784 27.3849 68.9815 26.3998 68.9866 25.3935C68.9928 24.0558 69.5319 22.7746 70.4865 21.8287C71.4412 20.8827 72.7342 20.3486 74.0842 20.3425H74.0821ZM104.573 23.6787C105.351 23.6783 106.111 23.9064 106.758 24.3342C107.405 24.7621 107.909 25.3704 108.207 26.0822C108.504 26.794 108.582 27.5774 108.431 28.3331C108.279 29.0889 107.905 29.7831 107.355 30.328C106.805 30.8729 106.104 31.2439 105.342 31.3941C104.579 31.5443 103.788 31.467 103.07 31.1719C102.352 30.8769 101.738 30.3773 101.306 29.7364C100.874 29.0956 100.644 28.3422 100.644 27.5716C100.645 26.5393 101.059 25.5495 101.796 24.8195C102.532 24.0896 103.531 23.6792 104.573 23.6787ZM70.8074 2.26948C71.4953 2.2889 72.1485 2.57335 72.6282 3.0624C73.1079 3.55145 73.3763 4.20655 73.3763 4.88852C73.3763 5.5705 73.1079 6.2256 72.6282 6.71465C72.1485 7.20369 71.4953 7.48814 70.8074 7.50756C70.4539 7.51754 70.1021 7.45718 69.7726 7.33005C69.4431 7.20291 69.1427 7.0116 68.8891 6.76741C68.6356 6.52322 68.434 6.23113 68.2964 5.9084C68.1587 5.58568 68.0878 5.23888 68.0878 4.88852C68.0878 4.53817 68.1587 4.19137 68.2964 3.86865C68.434 3.54592 68.6356 3.25383 68.8891 3.00964C69.1427 2.76545 69.4431 2.57413 69.7726 2.447C70.1021 2.31987 70.4539 2.25951 70.8074 2.26948ZM61.3606 4.67491e-06C62.2309 -0.000415329 63.0816 0.254947 63.8053 0.73378C64.529 1.21261 65.0931 1.8934 65.4262 2.68999C65.7593 3.48658 65.8465 4.36318 65.6767 5.20887C65.5069 6.05456 65.0877 6.83134 64.4722 7.4409C63.8567 8.05047 63.0726 8.46544 62.219 8.6333C61.3655 8.80116 60.4809 8.71436 59.6771 8.3839C58.8733 8.05344 58.1866 7.49416 57.7037 6.77683C57.2208 6.0595 56.9635 5.21636 56.9643 4.35409C56.9638 3.78197 57.0771 3.21535 57.2979 2.6867C57.5186 2.15805 57.8425 1.67774 58.2509 1.27329C58.6592 0.868834 59.1441 0.54818 59.6777 0.32969C60.2114 0.1112 60.7833 -0.000834079 61.3606 4.67491e-06ZM66.9729 20.9927C66.8017 22.8723 66.0165 24.6453 64.7365 26.0428C63.4564 27.4402 61.7513 28.3859 59.8798 28.7363C58.0083 29.0868 56.0725 28.8228 54.3661 27.9846C52.6597 27.1463 51.2757 25.7795 50.4241 24.0914C49.5725 22.4033 49.2997 20.4861 49.6472 18.6305C49.9947 16.7749 50.9434 15.0823 52.3495 13.8093C53.7556 12.5363 55.5423 11.7524 57.4387 11.5766C59.335 11.4007 61.2375 11.8425 62.8575 12.8349C64.5882 13.8974 65.8963 14.5051 67.8136 13.8081C69.4401 13.1842 71.0171 12.4405 72.5316 11.5833C73.4666 11.0287 73.7475 10.5208 73.8397 9.36055C73.9611 7.89795 74.6484 6.53848 75.758 5.56641C76.8675 4.59435 78.3134 4.08497 79.7932 4.1448C81.273 4.20463 82.6722 4.82902 83.6981 5.88742C84.724 6.94582 85.2973 8.35626 85.298 9.82379C85.2923 11.0396 84.8998 12.2226 84.1764 13.2046C83.4752 14.18 83.3808 14.5986 83.7475 15.71C84.6354 18.3492 86.5998 22.5673 87.7685 24.9792C88.7507 27.0149 90.2004 27.8968 92.3536 28.36C93.762 28.6626 95.0554 29.3538 96.0844 30.3536C97.1134 31.3535 97.836 32.6214 98.1689 34.0109C98.5017 35.4003 98.4312 36.8547 97.9654 38.2062C97.4997 39.5576 96.6577 40.751 95.5367 41.6485C94.4157 42.546 93.0614 43.1111 91.6301 43.2785C90.1988 43.4459 88.749 43.2088 87.4479 42.5945C86.1468 41.9803 85.0476 41.014 84.2771 39.8071C83.5066 38.6003 83.0962 37.2021 83.0934 35.7741C83.0908 34.3523 83.4785 32.9567 84.215 31.7366C85.4782 29.788 85.7162 28.2134 84.8691 25.9992C83.7968 23.2176 82.2528 19.4117 80.8953 16.8214C80.3784 15.7589 79.9131 15.6186 78.7507 15.4784C77.9234 15.332 77.1307 15.0344 76.4132 14.6008C75.4782 13.9633 74.912 13.9038 73.8891 14.2735C72.3156 14.9378 70.7844 15.6964 69.304 16.5451C67.5734 17.6076 67.1059 18.9995 66.9665 20.9948L66.9729 20.9927ZM31.2877 25.3C28.4827 24.8368 27.1273 24.2375 24.7404 26.0438C22.9648 27.4335 20.1575 30.2151 18.8472 31.6962C16.8828 33.9232 18.0538 35.1259 17.6313 37.6292C17.4396 38.7943 16.9233 39.8833 16.1407 40.7734C15.358 41.6634 14.3401 42.3193 13.2015 42.6669C12.063 43.0146 10.849 43.0403 9.69652 42.7412C8.544 42.4421 7.49868 41.83 6.67834 40.9739C5.85799 40.1178 5.29522 39.0517 5.05342 37.8957C4.81163 36.7398 4.90041 35.5399 5.30978 34.4312C5.71915 33.3226 6.43284 32.3492 7.37043 31.6208C8.30802 30.8924 9.43225 30.438 10.6165 30.3086C13.0956 29.9814 14.3115 31.1884 16.6512 29.3779C18.1931 28.1751 21.1419 25.5338 22.6366 23.8189C24.5539 21.5941 23.992 20.1576 23.7089 17.3781C23.4376 14.9945 24.1321 12.6016 25.64 10.725C27.1478 8.84836 29.3457 7.6415 31.7509 7.36944C37.6913 6.71707 42.7439 11.9551 41.7595 17.8435C41.5663 19.0149 41.142 20.1371 40.5108 21.146C39.8796 22.1549 39.054 23.0306 38.081 23.7231C37.1081 24.4156 36.007 24.9113 34.8406 25.1819C33.6742 25.4525 32.4655 25.4926 31.2834 25.3H31.2877ZM46.7284 15.8757C47.341 15.8757 47.9285 16.1169 48.3616 16.5461C48.7948 16.9753 49.0381 17.5574 49.0381 18.1643C49.0381 18.7713 48.7948 19.3534 48.3616 19.7826C47.9285 20.2118 47.341 20.4529 46.7284 20.4529C46.1159 20.4529 45.5284 20.2118 45.0952 19.7826C44.6621 19.3534 44.4188 18.7713 44.4188 18.1643C44.4188 17.5574 44.6621 16.9753 45.0952 16.5461C45.5284 16.1169 46.1159 15.8757 46.7284 15.8757ZM38.0194 34.4481C37.9152 35.239 37.6542 36.0017 37.2514 36.6924C36.8486 37.383 36.312 37.9879 35.6724 38.4723C35.0329 38.9568 34.303 39.3111 33.5247 39.5151C32.7465 39.719 31.9352 39.7685 31.1376 39.6607C29.2654 39.3908 28.3154 39.0232 26.7627 40.2726C25.579 41.231 23.7604 43.1605 22.924 44.1635C22.2957 44.9072 22.1648 45.4874 22.1734 46.076C22.182 46.6646 22.3321 47.3233 22.2249 48.1755C22.0695 49.2657 21.4966 50.2549 20.6251 50.9379L20.5736 50.9762C20.2549 51.1975 19.9052 51.3715 19.5356 51.4925C18.941 51.6779 18.3275 51.7976 17.7063 51.8495C17.0308 51.9579 16.4196 52.1619 15.7355 53.0225C14.9056 54.034 13.3765 56.21 12.6967 57.5339C11.7724 59.3019 12.3428 60.1264 12.9562 61.9028C13.5004 63.4178 13.4156 65.0848 12.7204 66.5379C12.0252 67.991 10.7764 69.1112 9.24826 69.6526C8.35755 69.9628 7.40659 70.0649 6.4695 69.9511C5.53241 69.8372 4.63451 69.5105 3.84579 68.9963C3.05707 68.4822 2.39884 67.7945 1.92239 66.9868C1.44594 66.1792 1.16416 65.2735 1.099 64.3402C1.04306 63.5448 1.14616 62.7463 1.40239 61.9906C1.65862 61.2348 2.06294 60.5366 2.59214 59.936C3.12134 59.3354 3.76502 58.8443 4.48623 58.4908C5.20745 58.1373 5.99201 57.9283 6.79491 57.876C8.68425 57.7719 9.68789 57.9397 10.9639 56.4119C12.0747 54.9717 13.0679 53.4461 13.9341 51.8495C14.3995 50.9996 14.4123 50.4152 14.2944 49.8414C14.1593 49.2337 13.8783 48.643 13.8161 47.7738C13.7669 47.0374 13.912 46.3009 14.2373 45.6369C14.5626 44.9729 15.0567 44.4044 15.6712 43.9871C16.1865 43.6694 16.7652 43.4664 17.3675 43.3921C18.1653 43.2795 18.7743 43.3921 19.3576 43.4049C20.001 43.4197 20.6058 43.3135 21.3992 42.6463C22.4158 41.8154 24.3458 39.9922 25.2873 38.8213C26.5461 37.2743 26.1451 36.3499 25.9092 34.4906C25.6801 32.8984 26.0979 31.2812 27.0709 29.994C28.0439 28.7067 29.4926 27.8547 31.099 27.6248C32.0349 27.4962 32.9882 27.5836 33.8844 27.8801C34.7806 28.1767 35.5955 28.6745 36.2656 29.3345C36.9357 29.9946 37.4428 30.7992 37.7474 31.6854C38.052 32.5717 38.1458 33.5157 38.0216 34.4438L38.0194 34.4481Z" fill="url(#paint0_linear_202_354)"/>
    <defs>
        <linearGradient id="paint0_linear_202_354" x1="0.869321" y1="63.3217" x2="110.731" y2="55.5606" gradientUnits="userSpaceOnUse">
            <stop stop-color="#4D4D4D"/>
            <stop offset="1" stop-color="#969696"/>
        </linearGradient>
    </defs>
</svg>
