<svg width="32" height="32" viewBox="0 0 32 32" fill="none"
    xmlns="http://www.w3.org/2000/svg">
    <path d="M25 12.9998C19.1 14.2998 12.9 14.2998 7 12.9998L8.8 5.6998C13.4 3.4998 18.6 3.4998 23.2 5.6998L25 12.9998Z" stroke="#9A9CAA" stroke-width="2" stroke-miterlimit="10" stroke-linecap="round" stroke-linejoin="round"/>
    <path d="M23.2 16.7998C23.8 16.0998 24.4 15.7998 25 15.9998C25.9 16.3998 26.2 17.9998 25.7 19.5998C25.2 21.1998 24 22.2998 23.1 21.8998C23.1 21.8998 23 21.8998 23 21.7998C22.2 25.2998 19.4 27.8998 16 27.8998C12.6 27.8998 9.70004 25.2998 9.00004 21.7998L8.90004 21.8998C8.00004 22.2998 6.80004 21.1998 6.30004 19.5998C5.70004 17.9998 6.00004 16.3998 7.00004 15.9998C7.60004 15.7998 8.30004 16.0998 8.80004 16.7998" stroke="#9A9CAA" stroke-width="2" stroke-miterlimit="10" stroke-linecap="round" stroke-linejoin="round"/>
    <path d="M16 7V11" stroke="#9A9CAA" stroke-width="2" stroke-miterlimit="10" stroke-linecap="round" stroke-linejoin="round"/>
    <path d="M14 9H18" stroke="#9A9CAA" stroke-width="2" stroke-miterlimit="10" stroke-linecap="round" stroke-linejoin="round"/>
</svg>
